<?xml version="1.0" standalone="no"?>
<!DOCTYPE svg PUBLIC "-//W3C//DTD SVG 20010904//EN"
 "http://www.w3.org/TR/2001/REC-SVG-20010904/DTD/svg10.dtd">
<svg version="1.0" xmlns="http://www.w3.org/2000/svg"
 width="500.000000pt" height="500.000000pt" viewBox="0 0 500.000000 500.000000"
 preserveAspectRatio="xMidYMid meet">

<g transform="translate(0.000000,500.000000) scale(0.100000,-0.100000)"
fill="#000000" stroke="none">
<path d="M3306 3369 c-140 -33 -166 -134 -96 -363 35 -115 39 -185 12 -209
-10 -9 -37 -19 -61 -23 -46 -7 -47 -8 -54 -71 l-5 -43 49 0 c83 0 152 39 186
105 25 47 19 145 -17 269 -45 159 -48 189 -19 210 13 9 35 16 50 16 23 0 27 5
33 38 11 68 8 82 -16 81 -13 -1 -41 -5 -62 -10z"/>
<path d="M3628 3366 c-135 -36 -159 -126 -93 -350 55 -187 47 -227 -48 -243
-44 -7 -43 -5 -51 -65 l-7 -48 43 0 c92 0 167 41 194 107 22 53 17 140 -17
259 -17 60 -33 130 -36 155 -5 40 -3 48 18 63 13 9 33 16 46 16 27 0 29 3 38
68 7 50 6 52 -17 51 -12 0 -44 -6 -70 -13z"/>
<path d="M3947 3366 c-125 -34 -154 -138 -92 -333 58 -184 55 -234 -14 -253
-20 -5 -43 -10 -52 -10 -19 0 -29 -28 -29 -79 l0 -33 58 4 c105 8 159 49 184
142 14 51 7 94 -47 295 -33 124 -28 147 34 157 43 7 51 20 51 87 0 43 -10 45
-93 23z"/>
<path d="M1080 3366 c0 -3 -18 -161 -40 -351 -22 -190 -40 -349 -40 -352 0
-10 172 5 210 18 82 27 133 90 151 183 13 70 -1 127 -39 156 l-27 22 28 20
c62 45 90 175 53 247 -26 50 -60 61 -186 61 -60 0 -110 -2 -110 -4z m190 -106
c13 -13 20 -33 20 -60 0 -73 -45 -130 -104 -130 l-29 0 7 73 c13 134 14 137
52 137 21 0 42 -8 54 -20z m-27 -291 c36 -45 10 -145 -47 -180 -41 -25 -79
-25 -72 -1 2 9 7 49 11 87 11 126 12 128 54 121 20 -3 44 -15 54 -27z"/>
<path d="M1545 3358 c-3 -7 -21 -152 -40 -323 -19 -170 -37 -325 -40 -343 l-6
-33 58 3 58 3 16 140 c9 77 17 142 18 145 1 3 28 -60 60 -140 l59 -145 47 -3
c26 -2 53 -1 61 2 9 4 -5 46 -53 158 -60 140 -64 153 -48 163 85 49 128 125
129 229 1 79 -16 116 -65 142 -37 19 -247 20 -254 2z m195 -103 c18 -22 15
-96 -5 -138 -18 -39 -47 -62 -90 -73 l-28 -7 7 69 c3 38 9 90 13 117 l6 47 42
0 c26 0 47 -6 55 -15z"/>
<path d="M2096 3353 c-83 -287 -196 -681 -196 -687 0 -4 24 -6 52 -4 l53 3 20
75 20 75 52 3 52 3 7 -81 7 -80 49 0 c30 0 50 5 54 13 2 7 -7 157 -21 334 -14
177 -25 331 -25 343 0 18 -6 20 -59 20 -48 0 -61 -3 -65 -17z m47 -320 l6
-123 -39 0 c-22 0 -40 2 -40 5 0 8 50 219 55 234 10 25 12 8 18 -116z"/>
<path d="M2455 3358 c-5 -17 -75 -646 -75 -676 0 -21 4 -23 53 -20 l52 3 32
275 c17 151 35 310 39 353 l7 77 -52 0 c-32 0 -53 -5 -56 -12z"/>
<path d="M2710 3366 c0 -3 -18 -161 -40 -351 -22 -190 -40 -348 -40 -351 0 -2
24 -4 54 -4 l53 0 6 48 c3 26 11 134 18 240 7 106 15 190 18 186 3 -3 26 -110
51 -237 l46 -232 39 -3 c22 -1 46 2 54 7 10 7 25 99 52 338 21 180 38 336 39
346 0 14 -9 17 -55 17 -39 0 -55 -4 -55 -13 0 -31 -31 -442 -34 -444 -1 -2
-19 79 -40 180 -21 100 -42 203 -48 230 l-10 47 -54 0 c-30 0 -54 -2 -54 -4z"/>
<path d="M1324 2156 c-17 -13 -19 -29 -22 -141 -2 -70 -1 -137 2 -150 9 -34
34 -55 66 -55 16 0 32 -4 35 -10 10 -17 35 -11 35 8 0 10 -3 21 -6 25 -3 3 -5
72 -5 153 2 125 -1 149 -15 165 -20 22 -62 25 -90 5z m64 -155 c3 -119 -6
-160 -29 -145 -10 6 -12 257 -2 268 21 20 28 -9 31 -123z"/>
<path d="M1690 2143 c-20 -26 -21 -37 -18 -159 3 -146 14 -174 68 -174 36 0
60 29 67 79 5 39 4 41 -21 41 -23 0 -26 -4 -26 -35 0 -29 -4 -35 -20 -35 -20
0 -20 5 -18 133 3 109 6 132 18 132 10 0 16 -12 18 -37 3 -33 6 -38 29 -38 24
0 25 2 20 41 -10 78 -74 106 -117 52z"/>
<path d="M2080 2115 l0 -55 -26 12 c-43 20 -54 -7 -54 -127 0 -120 11 -147 54
-127 15 7 26 8 26 2 0 -6 9 -10 20 -10 19 0 20 7 20 180 0 173 -1 180 -20 180
-18 0 -20 -7 -20 -55z m-5 -171 c0 -72 -3 -89 -15 -89 -12 0 -16 17 -18 79 -3
87 1 110 21 103 8 -2 12 -30 12 -93z"/>
<path d="M2424 2156 c-17 -13 -19 -29 -22 -156 -3 -116 -1 -145 12 -166 18
-26 54 -32 75 -11 11 10 14 10 18 0 13 -36 23 -3 23 77 l0 90 -30 0 c-23 0
-30 -4 -30 -20 0 -11 5 -20 11 -20 6 0 9 -19 7 -47 -2 -36 -7 -49 -21 -51 -16
-3 -17 7 -15 135 3 115 6 138 18 138 10 0 16 -12 18 -37 3 -30 7 -38 23 -38
16 0 19 7 19 43 0 68 -55 100 -106 63z"/>
<path d="M3350 2110 c0 -16 -4 -30 -10 -30 -5 0 -10 -9 -10 -20 0 -11 4 -20 9
-20 5 0 10 -44 13 -99 4 -106 14 -131 54 -131 27 0 34 34 9 44 -12 4 -15 25
-15 96 0 73 3 90 15 90 8 0 15 9 15 20 0 11 -7 20 -15 20 -10 0 -15 10 -15 30
0 25 -4 30 -25 30 -21 0 -25 -5 -25 -30z"/>
<path d="M1480 1945 c0 -128 1 -135 20 -135 18 0 20 8 22 108 3 102 4 107 26
110 16 3 22 10 22 28 0 28 -7 30 -32 7 -17 -15 -18 -15 -18 0 0 10 -8 17 -20
17 -19 0 -20 -7 -20 -135z"/>
<path d="M1864 2066 c-17 -13 -19 -27 -19 -121 0 -94 2 -108 19 -121 29 -21
63 -17 80 8 12 16 16 47 16 115 0 80 -3 96 -20 113 -24 24 -49 25 -76 6z m56
-122 c0 -86 -2 -95 -17 -92 -15 3 -18 16 -21 82 -3 89 0 106 23 106 12 0 15
-16 15 -96z"/>
<path d="M2184 2059 c-16 -18 -19 -37 -19 -114 0 -77 3 -96 19 -114 36 -40 86
-19 101 42 6 23 4 27 -14 27 -14 0 -21 -6 -21 -20 0 -25 -29 -38 -41 -19 -5 8
-9 29 -9 47 0 32 1 32 46 32 l47 0 -5 50 c-8 82 -61 117 -104 69z m64 -57 c3
-29 1 -32 -22 -32 -19 0 -26 5 -26 19 0 58 43 70 48 13z"/>
<path d="M2597 2062 c-26 -28 -24 -212 1 -235 38 -35 87 -14 98 41 6 28 4 32
-14 32 -14 0 -22 -8 -24 -22 -2 -13 -11 -24 -20 -26 -15 -3 -18 4 -18 42 l0
46 41 0 41 0 -4 56 c-3 40 -10 61 -23 70 -26 19 -59 17 -78 -4z m61 -60 c3
-27 0 -32 -17 -32 -17 0 -21 6 -21 36 0 28 3 35 18 32 11 -2 18 -14 20 -36z"/>
<path d="M2740 1945 c0 -128 1 -135 20 -135 18 0 20 8 22 113 2 92 6 112 18
112 12 0 16 -20 18 -112 2 -105 4 -113 22 -113 19 0 20 7 20 118 0 136 -11
168 -51 143 -17 -10 -24 -10 -27 -2 -2 6 -12 11 -23 11 -18 0 -19 -9 -19 -135z"/>
<path d="M2926 2064 c-23 -23 -29 -54 -24 -145 3 -66 7 -83 23 -95 42 -31 95
-4 95 49 0 20 -5 27 -20 27 -15 0 -20 -7 -20 -26 0 -19 -5 -25 -17 -22 -13 2
-19 15 -21 46 l-3 42 40 0 41 0 0 53 c0 40 -5 58 -18 70 -23 21 -56 22 -76 1z
m54 -59 c0 -28 -4 -35 -20 -35 -15 0 -20 7 -20 28 0 32 7 42 27 42 8 0 13 -12
13 -35z"/>
<path d="M3060 1945 l0 -135 25 0 c24 0 24 1 27 108 3 102 4 107 26 110 16 3
22 10 22 28 0 28 -12 31 -34 8 -15 -14 -16 -14 -16 0 0 10 -9 16 -25 16 l-25
0 0 -135z"/>
<path d="M3208 2063 c-9 -10 -19 -28 -22 -40 -6 -20 -4 -23 18 -23 19 0 26 5
26 20 0 11 7 20 15 20 30 0 16 -49 -25 -89 -34 -32 -40 -44 -40 -78 0 -51 22
-73 53 -54 15 10 22 11 25 2 2 -6 13 -11 25 -11 22 0 22 3 19 117 -3 90 -7
122 -19 135 -21 23 -56 23 -75 1z m50 -165 c-2 -30 -8 -43 -18 -43 -19 0 -25
37 -10 64 18 35 31 24 28 -21z"/>
<path d="M3484 2066 c-17 -13 -19 -27 -19 -121 0 -94 2 -108 19 -121 29 -21
63 -17 80 8 12 16 16 47 16 115 0 80 -3 96 -20 113 -24 24 -49 25 -76 6z m56
-122 c0 -86 -2 -95 -17 -92 -15 3 -18 16 -21 82 -3 89 0 106 23 106 12 0 15
-16 15 -96z"/>
<path d="M3620 1945 l0 -135 25 0 c24 0 24 1 27 108 3 102 4 107 26 110 16 3
22 10 22 28 0 28 -12 31 -34 8 -15 -14 -16 -14 -16 0 0 10 -9 16 -25 16 l-25
0 0 -135z"/>
</g>
</svg>
